<svg width="70" height="63" viewBox="0 0 70 63" fill="none" xmlns="http://www.w3.org/2000/svg">
  <path d="M2.78003 61.4534L4.0437 57.8462H5.49402L3.52371 62.9995H2.03635L0.06604 57.8462H1.51563L2.78003 61.4534Z"
        fill="#F0F0F0"/>
  <path
    d="M6.94366 61.1221H8.13326L7.53846 59.3919L6.94366 61.1221ZM6.27479 62.9998H4.8252L6.79478 57.8457H8.28214L10.2524 62.9998H8.80286L8.46806 62.0793H6.60959L6.27479 62.9998Z"
    fill="#F0F0F0"/>
  <path
    d="M48.0936 41.0473H69.9871V54.7288H0V6.10352e-05L27.6962 51.9263L33.4263 41.1818L33.4989 41.0473L55.3917 6.10352e-05H69.9871L48.0936 41.0473Z"
    fill="#F0F0F0"/>
  <path
    d="M13.8954 59.3178C13.8954 59.023 13.7465 58.8762 13.4495 58.8762H11.9621V60.4224H13.4495C13.7465 60.4224 13.8954 60.275 13.8954 59.9801V59.3178ZM10.6244 57.8457H13.7465C14.2673 57.8457 14.6449 57.9622 14.8802 58.1952C15.1162 58.4282 15.2339 58.8022 15.2339 59.3178V59.9801C15.2339 60.3879 15.1656 60.7043 15.0298 60.9301C14.8933 61.1559 14.6761 61.3055 14.3791 61.3795L15.308 62.999H13.8584L13.0029 61.4529H11.9621V62.999H10.6244V57.8457Z"
    fill="#F0F0F0"/>
  <path
    d="M20.1036 62.999H15.9771V57.845H20.1036V58.8762H17.3155V59.8701H19.5088V60.9006H17.3155V61.9678H20.1036V62.999Z"
    fill="#F0F0F0"/>
  <path d="M25.2337 62.999H23.8211L22.0367 59.9068V62.999H20.6982V57.845H22.1108L23.8952 60.9373V57.845H25.2337V62.999Z"
        fill="#F0F0F0"/>
  <path
    d="M28.5794 62.999H25.9025V61.9678H26.5721V58.8762H25.9025V57.845H28.5794V58.8762H27.9105V61.9678H28.5794V62.999Z"
    fill="#F0F0F0"/>
  <path
    d="M30.587 62.999H29.2485V57.845H30.587V59.8701H31.2559L32.4164 57.845H33.829L32.3714 60.385L33.8217 62.999H32.4084L31.2559 60.9006H30.587V62.999Z"
    fill="#F0F0F0"/>
  <path d="M37.8438 61.9688H40.5571V63H36.5054V57.846H37.8438V61.9688Z" fill="#F0F0F0"/>
  <path
    d="M45.2042 62.999H41.0776V57.845H45.2042V58.8762H42.4161V59.8701H44.6101V60.9006H42.4161V61.9678H45.2042V62.999Z"
    fill="#F0F0F0"/>
  <path
    d="M47.3978 61.1214H48.5874L47.9918 59.3911L47.3978 61.1214ZM46.7282 62.999H45.2786L47.2489 57.845H48.7362L50.7065 62.999H49.257L48.9222 62.0785H47.063L46.7282 62.999Z"
    fill="#F0F0F0"/>
  <path d="M53.0857 62.999H51.7472V58.8762H50.1858V57.845H54.6464V58.8762H53.0857V62.999Z" fill="#F0F0F0"/>
  <path d="M59.7029 62.999H58.3644V60.9006H56.506V62.999H55.1675V57.845H56.506V59.8701H58.3644V57.845H59.7029V62.999Z"
        fill="#F0F0F0"/>
  <path
    d="M64.7211 62.999H60.5946V57.845H64.7211V58.8762H61.9331V59.8701H64.1263V60.9006H61.9331V61.9678H64.7211V62.999Z"
    fill="#F0F0F0"/>
  <path
    d="M68.5873 59.3178C68.5873 59.023 68.4392 58.8762 68.1414 58.8762H66.6548V60.4224H68.1414C68.4392 60.4224 68.5873 60.275 68.5873 59.9801V59.3178ZM65.3163 57.8457H68.4392C68.9599 57.8457 69.3375 57.9622 69.5728 58.1952C69.8081 58.4282 69.9258 58.8022 69.9258 59.3178V59.9801C69.9258 60.3879 69.8575 60.7043 69.7217 60.9301C69.5852 61.1559 69.368 61.3055 69.071 61.3795L69.9999 62.999H68.5503L67.6947 61.4529H66.6548V62.999H65.3163V57.8457Z"
    fill="#F0F0F0"/>
</svg>
