<svg width="28" height="30" viewBox="0 0 28 30" fill="none" xmlns="http://www.w3.org/2000/svg">
  <path d="M15.875 0H19.5875C19.8575 1.34062 20.6 3.03188 21.9031 4.71C23.1781 6.35437 24.8694 7.5 27.125 7.5V11.25C23.8381 11.25 21.3688 9.72375 19.625 7.82062V20.625C19.625 22.4792 19.0752 24.2918 18.045 25.8335C17.0149 27.3752 15.5507 28.5768 13.8377 29.2864C12.1246 29.9959 10.2396 30.1816 8.42103 29.8199C6.60246 29.4581 4.932 28.5652 3.62088 27.2541C2.30976 25.943 1.41688 24.2725 1.05514 22.454C0.693406 20.6354 0.879062 18.7504 1.58863 17.0373C2.29821 15.3243 3.49982 13.8601 5.04153 12.83C6.58324 11.7998 8.3958 11.25 10.25 11.25V15C9.13748 15 8.04995 15.3299 7.12492 15.948C6.19989 16.5661 5.47892 17.4446 5.05318 18.4724C4.62744 19.5002 4.51604 20.6312 4.73309 21.7224C4.95013 22.8135 5.48586 23.8158 6.27253 24.6025C7.0592 25.3891 8.06148 25.9249 9.15262 26.1419C10.2438 26.359 11.3748 26.2476 12.4026 25.8218C13.4304 25.3961 14.3089 24.6751 14.927 23.7501C15.5451 22.8251 15.875 21.7375 15.875 20.625V0Z" fill="#F0F0F0"/>
</svg>
